HIERARCHY
ROOT hip
{
	OFFSET 0.000000 0.000000 0.000000 
	CHANNELS 6 Xposition Yposition Zposition Xrotation Zrotation Yrotation
	JOINT abdomen
	{
		OFFSET 0.000000 3.402643 0.000000 
		CHANNELS 3 Xrotation Zrotation Yrotation
		JOINT chest
		{
			OFFSET 0.000000 8.438565 -0.680529 
			CHANNELS 3 Xrotation Zrotation Yrotation
			JOINT neck
			{
				OFFSET 0.000000 10.207942 -0.272212 
				CHANNELS 3 Xrotation Zrotation Yrotation
				JOINT head
				{
					OFFSET 0.000000 3.130431 0.000000 
					CHANNELS 3 Xrotation Zrotation Yrotation
					End Site
					{
						OFFSET 0.000000 3.130435 0.000000 
					}
				}
			}
			JOINT lCollar
			{
				OFFSET 3.470700 6.669187 -0.816635 
				CHANNELS 3 Yrotation Zrotation Xrotation
				JOINT lShldr
				{
					OFFSET 3.198488 0.000000 0.000000 
					CHANNELS 3 Zrotation Yrotation Xrotation
					JOINT lForeArm
					{
						OFFSET 10.139888 0.000000 0.000000 
						CHANNELS 3 Yrotation Zrotation Xrotation
						JOINT lHand
						{
							OFFSET 8.370511 0.000000 0.000000 
							CHANNELS 3 Zrotation Yrotation Xrotation
							End Site
							{
								OFFSET 4.083176 0.000000 0.000000 
							}
						}
					}
				}
			}
			JOINT rCollar
			{
				OFFSET -3.470700 6.669187 -0.816635 
				CHANNELS 3 Yrotation Zrotation Xrotation
				JOINT rShldr
				{
					OFFSET -3.198488 0.000000 0.000000 
					CHANNELS 3 Zrotation Yrotation Xrotation
					JOINT rForeArm
					{
						OFFSET -10.139888 0.000000 0.000000 
						CHANNELS 3 Yrotation Zrotation Xrotation
						JOINT rHand
						{
							OFFSET -8.370511 0.000000 0.000000 
							CHANNELS 3 Zrotation Yrotation Xrotation
							End Site
							{
								OFFSET -4.083176 0.000000 0.000000 
							}
						}
					}
				}
			}
		}
	}
	JOINT lThigh
	{
		OFFSET 5.308129 -1.633274 1.361059 
		CHANNELS 3 Xrotation Zrotation Yrotation
		JOINT lShin
		{
			OFFSET -2.041588 -20.007561 0.000000 
			CHANNELS 3 Xrotation Zrotation Yrotation
			JOINT lFoot
			{
				OFFSET 0.000000 -19.190928 -1.224953 
				CHANNELS 3 Xrotation Yrotation Zrotation
				End Site
				{
					OFFSET 0.000000 -2.449906 4.627600 
				}
			}
		}
	}
	JOINT rThigh
	{
		OFFSET -5.308129 -1.633274 1.361059 
		CHANNELS 3 Xrotation Zrotation Yrotation
		JOINT rShin
		{
			OFFSET 2.041588 -20.007561 0.000000 
			CHANNELS 3 Xrotation Zrotation Yrotation
			JOINT rFoot
			{
				OFFSET 0.000000 -19.190928 -1.224953 
				CHANNELS 3 Xrotation Yrotation Zrotation
				End Site
				{
					OFFSET 0.000000 -2.449906 4.627600 
				}
			}
		}
	}
}
MOTION
Frames: 13
Frame Time: 0.033333
0.000000 36.242779 -1.815300 11.181641 1.992187 4.658204 14.785155 -2.773437 1.279297 9.882813 -1.474610 1.747795 6.425781 -1.992187 3.183594 -20.810547 1.132813 -5.361135 0.000000 0.000000 0.000000 -79.785156 -39.902344 -2.682045 -124.101563 -10.488281 -40.203304 -28.320311 0.058594 -2.998036 0.000000 0.000000 0.000000 48.906250 49.833984 -54.230816 107.744141 43.125000 -43.222656 0.117188 3.037108 0.088408 -44.889233 24.148544 2.177500 79.191818 -6.687385 -6.429984 -38.796200 10.959113 -15.972083 -81.270920 -31.266413 1.601602 68.906937 5.087046 6.271055 0.834416 1.574055 1.364997 
0.000000 36.317844 -1.815300 11.494142 2.812500 4.648917 14.785155 -2.773437 1.279297 9.882813 -1.474610 1.747795 6.933594 -3.476562 3.154297 -24.208984 0.244141 -6.435501 0.000000 0.000000 0.000000 -79.218750 -39.335941 -3.775721 -124.824219 -10.478517 -40.371090 -29.501951 -1.142578 -3.174023 0.000000 0.000000 0.000000 50.517582 46.943359 -53.322941 112.392578 42.177734 -46.715542 0.136719 3.046875 0.439453 -44.515823 23.092428 2.613168 78.496284 -7.195182 -6.046517 -38.473370 10.828678 -15.557341 -81.681381 -31.637630 2.331103 68.380661 5.254008 6.346446 0.927261 1.500963 1.346802 
0.000000 36.363998 -1.815300 11.787110 3.496094 4.658799 14.785155 -2.773437 1.279297 9.882813 -1.474610 1.747795 7.402344 -4.873047 3.124170 -27.353514 -0.517578 -7.412197 0.000000 0.000000 0.000000 -78.623047 -38.769531 -4.537364 -125.507813 -10.166016 -40.253902 -30.292971 -2.617188 -3.105469 0.000000 0.000000 0.000000 51.689449 44.589844 -52.119141 116.386726 41.064457 -49.410709 0.107422 3.017578 0.439453 -44.363438 22.391705 3.580811 77.794617 -7.185148 -5.751722 -38.428818 10.240160 -15.219374 -82.078674 -32.011234 2.898537 68.021980 5.410899 6.404736 1.065533 1.626726 1.369708 
0.000000 36.379333 -1.815300 12.031675 4.062641 4.648939 14.785155 -2.773437 1.279297 9.882813 -1.474610 1.747795 7.841796 -6.181641 3.095703 -30.234375 -1.162109 -8.310547 0.000000 0.000000 0.000000 -78.271484 -38.232426 -5.884950 -126.054695 -10.312500 -40.478516 -31.181641 -3.798828 -3.417969 0.000000 0.000000 0.000000 53.115234 42.021484 -51.399712 120.449211 40.273438 -52.207031 0.126953 3.046874 0.264191 -44.229607 21.723577 3.840470 77.438354 -7.380847 -5.478656 -38.089092 10.073301 -15.160439 -82.227310 -32.360031 3.242048 67.823143 5.595443 6.653694 1.004109 1.680406 1.005743 
0.000000 36.361603 -1.815300 12.255859 4.492188 4.658203 14.785155 -2.773437 1.279297 9.882813 -1.474610 1.747795 8.242188 -7.353516 3.055391 -32.890625 -1.689453 -9.101563 0.000000 0.000000 0.000000 -77.851563 -37.949219 -6.451316 -126.572273 -10.156250 -40.322269 -32.050781 -4.843750 -3.242188 0.000000 0.000000 0.000000 54.316406 39.970703 -50.599197 124.238289 39.501953 -54.762074 0.146484 3.066406 0.087891 -44.248127 21.201365 4.203523 77.279961 -7.388753 -5.478482 -38.077499 10.101100 -14.776217 -82.481384 -32.320950 3.732858 67.801994 5.781343 6.606065 0.983875 1.490120 1.008641 
0.000000 36.308224 -1.815300 12.460938 4.775391 4.667969 14.785155 -2.773437 1.279297 9.882813 -1.474610 1.747795 8.593750 -8.388672 3.046875 -35.361328 -2.070312 -9.795274 0.000000 0.000000 0.000000 -77.490234 -37.431641 -7.607421 -127.148438 -10.146484 -41.113281 -32.919922 -5.312500 -3.213795 0.000000 0.000000 0.000000 55.546875 37.832031 -49.671749 127.509766 38.701172 -56.988529 0.146484 3.066406 0.087891 -44.379055 20.807257 4.498120 77.271942 -7.527270 -5.419513 -38.079899 10.111639 -14.599722 -83.078842 -32.517117 4.041638 67.811882 5.771230 6.610418 1.155918 1.813645 0.823003 
0.000000 36.216248 -1.815300 12.626954 4.912109 4.668805 14.785155 -2.773437 1.279297 9.882813 -1.474610 1.747795 8.896484 -9.267578 3.016005 -37.646484 -2.314453 -10.420318 0.000000 0.000000 0.000000 -77.109375 -37.216797 -8.306686 -127.666016 -10.136718 -40.878906 -33.554684 -6.357422 -3.389751 0.000000 0.000000 0.000000 56.601563 36.101379 -49.010475 130.595703 38.076172 -59.101559 0.166016 3.134765 0.263672 -44.776138 20.854290 4.263961 77.623726 -7.732358 -5.270639 -38.322773 9.801727 -14.495857 -83.445648 -32.694923 3.989263 67.987358 5.801017 6.651559 1.318248 2.098282 0.498109 
0.000000 36.082321 -1.815300 12.783204 4.902344 4.688334 14.785155 -2.773437 1.279297 9.882813 -1.474610 1.747795 9.140625 -9.980468 3.006120 -39.765629 -2.392578 -10.927735 0.000000 0.000000 0.000000 -76.933594 -36.865231 -8.863279 -128.232422 -10.234375 -41.013893 -34.052734 -6.982421 -3.496094 0.000000 0.000000 0.000000 57.294922 34.531250 -48.695637 133.554688 37.529301 -61.851654 0.107422 3.027344 0.263672 -45.205406 20.801210 4.014497 78.318985 -7.896657 -5.497229 -38.822182 9.982306 -14.235579 -83.902039 -32.674423 4.526546 68.144218 5.966876 6.595522 1.356886 1.861513 0.992941 
0.000000 35.902668 -1.815300 12.890625 4.726562 4.697266 14.785155 -2.773437 1.279297 9.882813 -1.474610 1.747795 9.306641 -10.468750 2.986507 -41.728516 -2.265625 -11.377339 0.000000 0.000000 0.000000 -76.757813 -36.679688 -9.097630 -128.593750 -10.107423 -41.170162 -34.873047 -7.744140 -3.173828 0.000000 0.000000 0.000000 58.164059 33.369141 -47.851563 135.771484 36.757813 -62.949215 0.000000 3.164063 0.263672 -45.856522 21.199825 3.814499 79.215851 -7.566406 -5.890952 -39.363251 9.972713 -14.516715 -84.473251 -32.692169 4.228812 68.697723 5.966244 6.839533 1.241454 1.697450 0.851526 
0.000000 35.673023 -1.815300 12.998047 4.384766 4.717543 14.785155 -2.773437 1.279297 9.882813 -1.474610 1.747795 9.404297 -10.761719 2.986458 -43.574219 -1.962891 -11.708985 0.000000 0.000000 0.000000 -76.582031 -36.503906 -9.683543 -129.121094 -10.068359 -41.209229 -35.009762 -8.085938 -3.595124 0.000000 0.000000 0.000000 58.857422 32.246094 -47.314453 138.320313 36.093754 -64.638680 0.000000 3.164063 0.263672 -46.677395 21.707869 3.329780 80.253120 -7.380946 -6.475709 -39.733032 10.013546 -14.268455 -85.102669 -32.664337 4.472121 69.405304 5.937890 6.922172 1.241650 1.729220 1.029603 
0.000000 35.395237 -1.815300 13.046875 3.867188 4.727222 14.785155 -2.773437 1.279297 9.882813 -1.474610 1.747795 9.414063 -10.800781 2.986451 -45.283203 -1.445313 -11.943359 0.000000 0.000000 0.000000 -76.386719 -36.328125 -9.927660 -129.687500 -10.078124 -41.697510 -35.009766 -8.095703 -3.417969 0.000000 0.000000 0.000000 59.570316 31.416019 -46.869907 140.332031 35.712887 -66.025391 0.048828 2.988281 0.078634 -47.835007 22.369596 2.704579 81.804871 -7.039364 -6.976902 -40.007206 10.325181 -14.701745 -85.879456 -32.692120 4.245797 70.287056 6.132767 7.013581 1.243054 1.900092 0.343415 
0.000000 35.097168 -1.815300 13.095703 3.242188 4.756412 14.785155 -2.773437 1.279297 9.882813 -1.474610 1.747795 9.355469 -10.625000 2.986481 -46.796875 -0.751953 -12.109504 0.000000 0.000000 0.000000 -76.386719 -36.328125 -9.927660 -129.863281 -10.244141 -41.599831 -35.000000 -8.261718 -3.370542 0.000000 0.000000 0.000000 59.921879 31.054688 -46.596523 141.914063 35.419922 -67.212685 0.126953 3.037108 0.264189 -48.999527 23.122931 1.901406 83.774948 -6.883683 -7.668628 -41.334019 10.162676 -14.440878 -86.654060 -32.693119 3.955835 71.358330 5.956791 7.180590 1.138627 1.567304 -0.016432 
0.000000 34.813084 -1.815300 13.085938 2.558594 4.775826 14.785155 -2.773437 1.279297 9.882813 -1.474610 1.747795 9.238281 -10.273438 2.998046 -48.076172 0.058594 -12.148425 0.000000 0.000000 0.000000 -76.386719 -36.328125 -9.751878 -130.234375 -10.253906 -41.873260 -35.009766 -8.095703 -3.242188 0.000000 0.000000 0.000000 60.253906 30.800779 -46.225471 143.271484 34.873047 -68.085945 0.048828 2.988281 0.254415 -50.106930 23.954958 1.180474 85.329727 -6.718105 -8.317771 -42.027069 10.335669 -14.113571 -87.077942 -32.333309 3.692031 72.215935 6.132680 7.426104 1.140256 1.108638 0.158187 
